<?xml version="1.0" encoding="UTF-8" standalone="no" ?>
<!DOCTYPE svg PUBLIC "-//W3C//DTD SVG 1.1//EN" "http://www.w3.org/Graphics/SVG/1.1/DTD/svg11.dtd">
<svg xmlns="http://www.w3.org/2000/svg" xmlns:xlink="http://www.w3.org/1999/xlink" version="1.1" width="1280" height="1024" viewBox="0 0 1280 1024" xml:space="preserve">
<desc>Created with Fabric.js 5.3.0</desc>
<defs>
</defs>
<g transform="matrix(1 0 0 1 640 512)" id="background-logo"  >
<rect style="stroke: none; stroke-width: 0; stroke-dasharray: none; stroke-linecap: butt; stroke-dashoffset: 0; stroke-linejoin: miter; stroke-miterlimit: 4; fill: rgb(255,255,255); fill-opacity: 0; fill-rule: nonzero; opacity: 1;"  paint-order="stroke"  x="-640" y="-512" rx="0" ry="0" width="1280" height="1024" />
</g>
<g transform="matrix(1.9211538461538462 0 0 1.9211538461538462 640 395.6864080388972)" id="logo-logo"  >
<g style=""  paint-order="stroke"   >
		<g transform="matrix(0.917930923744532 0 0 0.9179309237445321 0 0)"  >
<g style=""  paint-order="stroke"   >
		<g transform="matrix(1 0 0 1 0 0)"  >
<linearGradient id="SVGID_190972_54580" gradientUnits="userSpaceOnUse" gradientTransform="matrix(1 0 0 1 -100 -100)"  x1="0" y1="0" x2="0" y2="200">
<stop offset="0%" style="stop-color:rgb(23,234,217);stop-opacity: 1"/>
<stop offset="100%" style="stop-color:rgb(96,120,234);stop-opacity: 1"/>
</linearGradient>
<polygon style="stroke: none; stroke-width: 1; stroke-dasharray: none; stroke-linecap: butt; stroke-dashoffset: 0; stroke-linejoin: miter; stroke-miterlimit: 4; fill: url(#SVGID_190972_54580); fill-rule: nonzero; opacity: 1;"  paint-order="stroke"  points="100,100 0,100 0,95.12 95.12,95.12 95.12,-95.12 -95.12,-95.12 -95.12,0 -100,0 -100,-100 100,-100 100,100 " />
</g>
</g>
</g>
</g>
</g>
<g transform="matrix(1.9211538461538462 0 0 1.9211538461538462 643.4868942307692 667.1128161574082)" id="text-logo"  >
<g style=""  paint-order="stroke"   >
		<g transform="matrix(1 0 0 1 0 0)" id="text-logo-path-0"  >
<path style="stroke: rgb(255,255,255); stroke-width: 0; stroke-dasharray: none; stroke-linecap: butt; stroke-dashoffset: 0; stroke-linejoin: miter; stroke-miterlimit: 4; fill: rgb(49,192,223); fill-rule: nonzero; opacity: 1;"  paint-order="stroke"  transform=" translate(-174.95499999999998, 19.25)" d="M 19.52 -29.15 L 19.52 -23.65 L 23.38 -23.65 L 23.38 -30.25 C 23.38 -37.62 19.25 -39.05 14.03 -39.05 C 8.86 -39.05 4.67 -37.62 4.67 -30.25 L 4.67 -8.25 C 4.67 -0.88 8.86 0.55 14.03 0.55 C 19.25 0.55 23.38 -0.99 23.38 -8.25 L 23.38 -10.56 L 19.52 -10.56 L 19.52 -9.35 C 19.52 -4.34 17.38 -3.3 14.03 -3.3 C 10.67 -3.3 8.53 -4.34 8.53 -9.35 L 8.53 -29.15 C 8.53 -34.16 10.67 -35.2 14.03 -35.2 C 17.38 -35.2 19.52 -34.16 19.52 -29.15 Z M 59.29 -38.5 L 50.49 -38.5 L 50.49 -35.2 L 52.97 -35.2 L 52.97 -3.3 L 50.49 -3.3 L 50.49 0 L 59.29 0 L 59.29 -3.3 L 56.81 -3.3 L 56.81 -35.2 L 59.29 -35.2 Z M 87.78 -38.5 L 87.78 0 L 91.63 0 L 91.63 -29.15 L 103.62 0 L 107.47 0 L 107.47 -38.5 L 103.62 -38.5 L 103.62 -9.35 L 91.63 -38.5 Z M 137.61 -38.5 L 137.61 0 L 154.11 0 L 154.11 -3.3 L 141.46 -3.3 L 141.46 -17.6 L 150.81 -17.6 L 150.81 -20.9 L 141.46 -20.9 L 141.46 -35.2 L 153.56 -35.2 L 153.56 -38.5 Z M 205.59 -38.5 L 200.09 -38.5 L 193.55 -14.96 L 187 -38.5 L 181.5 -38.5 L 181.5 0 L 185.35 0 L 185.35 -30.58 L 191.56 -8.25 L 195.53 -8.25 L 201.74 -30.58 L 201.74 0 L 205.59 0 Z M 232.43 0 L 236.28 0 L 238.48 -10.45 L 248.33 -10.45 L 250.53 0 L 254.38 0 L 246.29 -38.5 L 240.52 -38.5 Z M 239.2 -13.75 L 243.43 -33.94 L 247.67 -13.75 Z M 281.22 0 L 285.07 0 L 285.07 -14.3 L 288.92 -14.3 L 295.79 0 L 299.92 0 L 292.88 -14.74 C 296.12 -15.56 298.27 -17.82 298.27 -23.1 L 298.27 -29.7 C 298.27 -37.07 294.14 -38.5 288.92 -38.5 L 281.22 -38.5 Z M 285.07 -17.6 L 285.07 -35.2 L 288.92 -35.2 C 292.27 -35.2 294.42 -34.16 294.42 -29.15 L 294.42 -23.65 C 294.42 -18.64 292.27 -17.6 288.92 -17.6 Z M 326.81 -38.5 L 326.81 0 L 330.66 0 L 330.66 -16.28 L 331.81 -18.09 L 341.11 0 L 345.24 0 L 334.07 -21.73 L 344.46 -38.5 L 340.34 -38.5 L 330.66 -22.93 L 330.66 -38.5 Z" stroke-linecap="round" />
</g>
</g>
</g>
<g transform="matrix(1.9211538461538462 0 0 1.9211538461538462 640.7396442307692 399.76284281173395)" id="tagline-3a78d944-c0db-44d4-8ad5-60158c925687-logo"  >
<g style=""  paint-order="stroke"   >
		<g transform="matrix(1 0 0 1 0 0)" id="tagline-3a78d944-c0db-44d4-8ad5-60158c925687-logo-path-0"  >
<linearGradient id="SVGID_54581" gradientUnits="userSpaceOnUse" gradientTransform="matrix(1 0 0 1 6.539999999999999 -54.67)"  x1="-6.545000000000016" y1="-13.023780000000016" x2="-6.545000000000016" y2="73.97621999999998">
<stop offset="0%" style="stop-color:rgb(23,234,217);stop-opacity: 1"/>
<stop offset="100%" style="stop-color:rgb(96,120,234);stop-opacity: 1"/>
</linearGradient>
<path style="stroke: rgb(255,255,255); stroke-width: 0; stroke-dasharray: none; stroke-linecap: butt; stroke-dashoffset: 0; stroke-linejoin: miter; stroke-miterlimit: 4; fill: url(#SVGID_54581); fill-rule: nonzero; opacity: 1;"  paint-order="stroke"  transform=" translate(-19.634999999999998, 26.95)" d="M 27.34 -40.81 L 27.34 -33.11 L 32.73 -33.11 L 32.73 -42.35 C 32.73 -52.67 26.95 -54.67 19.63 -54.67 C 12.4 -54.67 6.54 -52.67 6.54 -42.35 L 6.54 -11.55 C 6.54 -1.23 12.4 0.77 19.63 0.77 C 26.95 0.77 32.73 -1.39 32.73 -11.55 L 32.73 -14.78 L 27.34 -14.78 L 27.34 -13.09 C 27.34 -6.08 24.33 -4.62 19.63 -4.62 C 14.94 -4.62 11.94 -6.08 11.94 -13.09 L 11.94 -40.81 C 11.94 -47.82 14.94 -49.28 19.63 -49.28 C 24.33 -49.28 27.34 -47.82 27.34 -40.81 Z" stroke-linecap="round" />
</g>
</g>
</g>
<g transform="matrix(1.9211538461538462 0 0 1.9211538461538462 640.0336201923078 764.260186926639)" id="tagline-ee21041c-fd7a-4646-a088-df0a2334375e-logo"  >
<g style=""  paint-order="stroke"   >
		<g transform="matrix(1 0 0 1 0 0)" id="tagline-ee21041c-fd7a-4646-a088-df0a2334375e-logo-path-0"  >
<path style="stroke: none; stroke-width: 0; stroke-dasharray: none; stroke-linecap: butt; stroke-dashoffset: 0; stroke-linejoin: miter; stroke-miterlimit: 4; fill: rgb(63,171,226); fill-rule: nonzero; opacity: 1;"  paint-order="stroke"  transform=" translate(-130.69500000000002, 12.25)" d="M 12.43 -18.55 L 12.43 -15.05 L 14.88 -15.05 L 14.88 -19.25 C 14.88 -23.94 12.25 -24.85 8.93 -24.85 C 5.64 -24.85 2.98 -23.94 2.98 -19.25 L 2.98 -5.25 C 2.98 -0.56 5.64 0.35 8.93 0.35 C 12.25 0.35 14.88 -0.63 14.88 -5.25 L 14.88 -6.72 L 12.43 -6.72 L 12.43 -5.95 C 12.43 -2.77 11.06 -2.1 8.93 -2.1 C 6.79 -2.1 5.43 -2.77 5.43 -5.95 L 5.43 -18.55 C 5.43 -21.74 6.79 -22.4 8.93 -22.4 C 11.06 -22.4 12.43 -21.74 12.43 -18.55 Z M 23.04 -19.25 L 23.04 -5.25 C 23.04 -0.56 25.7 0.35 28.99 0.35 C 32.32 0.35 34.94 -0.63 34.94 -5.25 L 34.94 -19.25 C 34.94 -23.94 32.32 -24.85 28.99 -24.85 C 25.7 -24.85 23.04 -23.94 23.04 -19.25 Z M 25.49 -5.95 L 25.49 -18.55 C 25.49 -21.74 26.86 -22.4 28.99 -22.4 C 31.13 -22.4 32.49 -21.74 32.49 -18.55 L 32.49 -5.95 C 32.49 -2.77 31.13 -2.1 28.99 -2.1 C 26.86 -2.1 25.49 -2.77 25.49 -5.95 Z M 43.99 -24.5 L 43.99 0 L 46.44 0 L 46.44 -18.55 L 54.07 0 L 56.52 0 L 56.52 -24.5 L 54.07 -24.5 L 54.07 -5.95 L 46.44 -24.5 Z M 71.33 0.35 C 74.62 0.35 77.28 -0.56 77.28 -5.25 L 77.28 -5.95 C 77.28 -11.59 67.83 -15.19 67.83 -18.55 C 67.83 -21.74 69.2 -22.4 71.33 -22.4 C 73.47 -22.4 74.83 -21.74 74.83 -18.55 L 74.83 -17.15 L 77.28 -17.15 L 77.28 -19.25 C 77.28 -23.94 74.66 -24.85 71.33 -24.85 C 68.04 -24.85 65.38 -23.94 65.38 -19.25 L 65.38 -18.55 C 65.38 -13.51 74.83 -9.91 74.83 -5.95 C 74.83 -2.77 73.47 -2.1 71.33 -2.1 C 69.2 -2.1 67.83 -2.77 67.83 -5.95 L 67.83 -7.77 L 65.38 -7.77 L 65.38 -5.25 C 65.38 -0.63 68.01 0.35 71.33 0.35 Z M 88.25 -5.95 L 88.25 -24.5 L 85.8 -24.5 L 85.8 -5.25 C 85.8 -0.56 88.46 0.35 91.75 0.35 C 95.08 0.35 97.7 -0.56 97.7 -5.25 L 97.7 -24.5 L 95.25 -24.5 L 95.25 -5.95 C 95.25 -2.77 93.89 -2.1 91.75 -2.1 C 89.62 -2.1 88.25 -2.77 88.25 -5.95 Z M 106.92 -24.5 L 106.92 0 L 115.67 0 L 115.67 -2.1 L 109.37 -2.1 L 109.37 -24.5 Z M 129.44 -24.5 L 117.89 -24.5 L 117.89 -22.4 L 122.44 -22.4 L 122.44 0 L 124.89 0 L 124.89 -22.4 L 129.44 -22.4 Z M 146.13 -24.5 L 146.13 0 L 154.88 0 L 154.88 -2.1 L 148.58 -2.1 L 148.58 -24.5 Z M 166.19 -24.5 L 160.59 -24.5 L 160.59 -22.4 L 162.17 -22.4 L 162.17 -2.1 L 160.59 -2.1 L 160.59 0 L 166.19 0 L 166.19 -2.1 L 164.62 -2.1 L 164.62 -22.4 L 166.19 -22.4 Z M 190.04 -24.5 L 186.54 -24.5 L 182.38 -9.52 L 178.21 -24.5 L 174.71 -24.5 L 174.71 0 L 177.16 0 L 177.16 -19.46 L 181.12 -5.25 L 183.64 -5.25 L 187.59 -19.46 L 187.59 0 L 190.04 0 Z M 204.16 -24.5 L 198.56 -24.5 L 198.56 -22.4 L 200.13 -22.4 L 200.13 -2.1 L 198.56 -2.1 L 198.56 0 L 204.16 0 L 204.16 -2.1 L 202.58 -2.1 L 202.58 -22.4 L 204.16 -22.4 Z M 221.78 -24.5 L 210.23 -24.5 L 210.23 -22.4 L 214.78 -22.4 L 214.78 0 L 217.23 0 L 217.23 -22.4 L 221.78 -22.4 Z M 228.9 -24.5 L 228.9 0 L 239.4 0 L 239.4 -2.1 L 231.35 -2.1 L 231.35 -11.2 L 237.3 -11.2 L 237.3 -13.3 L 231.35 -13.3 L 231.35 -22.4 L 239.05 -22.4 L 239.05 -24.5 Z M 252.46 -24.5 L 247.21 -24.5 L 247.21 0 L 252.46 0 C 255.79 0 258.41 -0.98 258.41 -5.6 L 258.41 -18.9 C 258.41 -23.59 255.79 -24.5 252.46 -24.5 Z M 249.66 -22.4 L 252.46 -22.4 C 254.6 -22.4 255.96 -21.74 255.96 -18.55 L 255.96 -5.95 C 255.96 -2.77 254.6 -2.1 252.46 -2.1 L 249.66 -2.1 Z" stroke-linecap="round" />
</g>
</g>
</g>
</svg>